<?xml version="1.0" encoding="utf-8"?>
<!-- Generator: Adobe Illustrator 16.0.0, SVG Export Plug-In . SVG Version: 6.00 Build 0)  -->
<!DOCTYPE svg PUBLIC "-//W3C//DTD SVG 1.1//EN" "http://www.w3.org/Graphics/SVG/1.1/DTD/svg11.dtd">
<svg version="1.1" id="Logo" xmlns="http://www.w3.org/2000/svg" xmlns:xlink="http://www.w3.org/1999/xlink" x="0px" y="0px"
	 width="960px" height="560px" viewBox="0 0 960 560" enable-background="new 0 0 960 560" xml:space="preserve">
<g>
	<path fill-rule="evenodd" clip-rule="evenodd" fill="#FFFFFF" d="M496.123,279.846c-1.592-0.253-2.288,0.549-2.926,1.567
		c-6.287,10.063-12.288,20.296-17.971,30.71c-3.992,7.312-7.917,14.665-11.681,22.097c-5.021,9.909-9.678,19.996-13.779,30.328
		c-2.535,6.388-4.823,12.859-6.748,19.462c-0.429,1.469-1.183,2.868-1.942,4.211c-5.13,9.074-10.828,17.766-17.572,25.742
		c-3.051,3.607-6.329,6.986-10.35,9.527c-1.383,0.873-2.896,1.558-4.392,2.235c-2.677,1.213-5.03,0.385-6.955-1.544
		c-1.075-1.076-1.917-2.443-2.646-3.797c-1.871-3.471-2.83-7.266-3.621-11.096c-0.914-4.427-1.51-8.903-1.776-13.412
		c-0.244-4.133-0.408-8.268-0.573-12.403c-0.09-2.256-0.197-4.517-0.146-6.771c0.125-5.315,0.315-10.629,0.529-15.94
		c0.153-3.805,0.339-7.611,0.595-11.413c0.293-4.359,0.632-8.719,1.034-13.071c0.752-8.143,1.465-16.289,2.377-24.417
		c1.105-9.855,2.363-19.695,3.642-29.53c0.283-2.182,0.968-4.308,1.395-6.473c1.892-9.596,3.759-19.196,5.633-28.795
		c0.495-2.538,0.994-5.077,1.461-7.62c0.125-0.684,0.14-1.388,0.229-2.337c0.573,0.524,1.021,0.906,1.436,1.319
		c1.163,1.159,2.651,1.063,3.983,0.718c1.039-0.271,1.803-1.24,1.775-2.469c-0.045-2.02,0.018-4.067-0.292-6.052
		c-0.978-6.249-2.863-12.281-4.756-18.298c-1.681-5.344-3.467-10.656-5.25-15.967c-0.372-1.11-0.953-2.149-1.405-3.234
		c-3.493-8.376-6.025-17.043-7.595-25.974c-0.611-3.473-1.018-6.992-1.297-10.508c-0.432-5.415,0.228-10.725,2.166-15.829
		c1.638-4.31,4.402-7.548,8.646-9.612c6.629-3.222,13.392-5.988,20.629-7.543c7.114-1.528,14.206-1.471,21.316-0.075
		c1.017,0.2,2.025,0.438,3.046,0.607c2.738,0.454,4.953,1.847,6.641,3.968c1.992,2.503,3.833,5.128,5.72,7.716
		c1.914,2.625,3.739,5.32,5.72,7.894c3.347,4.349,7.157,8.261,11.529,11.595c5.888,4.488,12.588,7.093,19.802,8.523
		c2.593,0.515,5.181,0.961,7.84,0.841c1.745-0.078,2.595-0.986,2.701-2.715c0.081-1.335-0.342-2.394-1.253-3.307
		c-1.429-1.434-2.854-2.874-4.301-4.292c-0.331-0.324-0.741-0.57-1.201-0.917c1.615-0.713,2.615-1.727,3.624-2.736
		c4.722-4.725,8.507-10.181,12.28-15.652c1.469-2.13,3.021-4.21,4.642-6.228c1.765-2.197,4.044-3.577,6.863-4.14
		c4.393-0.879,8.803-1.638,13.287-1.678c4.396-0.041,8.727,0.615,12.995,1.652c6.859,1.667,13.3,4.401,19.556,7.624
		c4.38,2.254,6.7,6.071,8.173,10.538c1.63,4.948,2.042,10.056,1.61,15.215c-1.02,12.206-4.07,23.932-8.737,35.227
		c-3.493,8.459-6.112,17.203-8.677,25.962c-1.188,4.058-2.011,8.224-2.947,12.354c-0.196,0.863-0.223,1.779-0.21,2.668
		c0.014,0.72-0.179,1.231-0.745,1.705c-1.767,1.478-2.933,3.399-3.957,5.442c-0.832,1.658-0.893,3.343-0.494,5.075
		c3.832,16.701,7.755,33.383,11.507,50.103c4,17.823,7.642,35.724,10.853,53.708c1.672,9.362,3.212,18.749,4.229,28.209
		c0.438,4.072,0.991,8.156,0.637,12.258c-0.194,2.242-0.669,4.466-1.109,6.678c-1.021,5.124-2.026,10.252-3.184,15.346
		c-0.675,2.988-1.773,5.856-3.366,8.508c-0.71,1.182-1.538,2.244-2.798,2.919c-1.262,0.675-2.499,0.894-3.915,0.41
		c-2.495-0.854-4.659-2.244-6.709-3.842c-4.04-3.151-7.38-6.99-10.603-10.935c-8.222-10.071-15.262-20.91-21.233-32.458
		c-8.328-16.111-14.841-32.951-20.354-50.203c-5.138-16.069-9.367-32.379-12.769-48.898c-1.434-6.96-2.596-13.976-3.907-20.962
		c-0.128-0.682-0.344-1.379-0.67-1.987c-1.316-2.448-2.637-4.9-4.74-6.806c-1.234-1.12-3.523-0.993-4.476,0.351
		c-0.324,0.457-0.446,1.123-0.483,1.704c-0.196,3.04,0.281,6.025,1.026,8.95c1.534,6.021,3.167,12.019,4.762,18.024
		C495.679,278.276,495.872,278.948,496.123,279.846z"/>
	<g>
		<path fill-rule="evenodd" clip-rule="evenodd" fill="#FFFFFF" stroke="#FFFFFF" stroke-width="12" stroke-miterlimit="10" d="
			M576.764,535.381c-1.476-0.263-2.946-0.549-4.426-0.782c-17.728-2.791-33.634-17.88-37.012-35.998
			c-2.444-13.112-0.581-25.513,7.222-36.675c2.063-2.951,4.517-5.552,7.138-8.004c0.338-0.318,0.674-0.642,1.065-1.015
			c-0.95-0.287-1.85-0.463-2.667-0.824c-2.619-1.157-4.828-2.904-6.888-4.868c-3.269-3.112-5.955-6.669-8.226-10.555
			c-3.701-6.329-6.438-13.086-8.796-20.007c-3.683-10.8-6.382-21.862-8.757-33.008c-2.867-13.447-5.19-26.995-7.413-40.56
			c-1.858-11.336-3.719-22.671-5.644-33.995c-0.828-4.873-1.823-9.716-2.746-14.571c-0.04-0.211-0.104-0.418-0.2-0.809
			c-0.262,0.322-0.419,0.478-0.529,0.661c-4.788,8.005-9.446,16.082-13.337,24.572c-2.303,5.022-4.209,10.183-5.071,15.672
			c-0.452,2.883-0.769,5.787-1.231,8.669c-0.305,1.903-0.636,3.817-1.17,5.665c-0.989,3.42-1.187,6.953-1.669,10.443
			c-2.615,18.869-6.072,37.551-12.438,55.577c-2.718,7.701-5.995,15.146-10.431,22.037c-2.796,4.349-6.102,8.255-10.06,11.592
			c-1.63,1.372-3.369,2.605-5.369,3.354c-1.334,0.499-2.757,0.769-4.238,1.168c0.469,0.467,0.983,0.989,1.508,1.5
			c5.798,5.644,9.837,12.339,12.037,20.135c1.767,6.261,1.957,12.64,1.327,19.058c-1.821,18.548-15.588,32.397-29.022,37.584
			c-6.629,2.56-13.491,3.244-20.536,2.946c-20.655-0.871-35.855-16.117-40.812-30.682c-1.544-4.539-2.38-9.188-2.476-13.987
			c-0.108-5.401,0.226-10.745,1.909-15.916c4.443-13.646,13.399-23.22,26.41-29.102c0.513-0.231,1.04-0.434,1.558-0.653
			c0.039-0.017,0.063-0.068,0.249-0.272c-0.708,0.176-1.242,0.291-1.763,0.444c-2.843,0.838-5.672,1.726-8.526,2.522
			c-3.484,0.972-4.834,0.48-6.972-2.438c-1.755-2.399-2.719-5.151-3.45-7.992c-0.978-3.801-1.446-7.682-1.682-11.586
			c-0.542-8.954-0.239-17.895,0.444-26.83c1.121-14.664,3.231-29.197,5.673-43.689c3.021-17.923,6.664-35.721,10.625-53.456
			c5.193-23.246,10.911-46.363,17.146-69.352c0.037-0.136,0.087-0.271,0.105-0.411c0.33-2.555,2.649-3.042,4.678-1.818
			c-0.346-0.362-0.688-0.729-1.041-1.084c-14.858-15.005-25.345-32.668-31.947-52.675c-3.093-9.37-5.196-18.965-6.356-28.771
			c-1.004-8.492-1.315-17.001-0.729-25.531c0.135-1.966,0.464-3.928,0.838-5.866c0.29-1.499,1.156-2.169,2.525-2.141
			c10.895,0.225,19.676-4.328,27.032-12.021c3.431-3.589,6.272-7.645,8.9-11.846c1.999-3.193,3.886-6.458,5.917-9.63
			c0.984-1.54,2.162-2.959,3.295-4.399c1.342-1.707,3.229-2.357,5.301-2.614c3.811-0.47,7.63-0.423,11.418,0.087
			c11.232,1.511,21.305,5.791,30.062,13.009c8.403,6.926,14.557,15.473,18.073,25.828c3.584,10.551,9.411,19.771,16.6,28.195
			c0.182,0.212,0.311,0.468,0.523,0.796c0.449-0.498,0.729-0.793,0.991-1.105c6.965-8.303,12.305-17.488,16.063-27.709
			c7.134-19.403,21.101-31.523,40.883-37.086c5.162-1.452,10.459-1.914,15.813-1.692c1.033,0.042,2.068,0.151,3.093,0.304
			c1.862,0.277,3.566,0.918,4.78,2.458c1.104,1.403,2.279,2.764,3.238,4.264c2.333,3.65,4.517,7.395,6.835,11.055
			c2.373,3.747,4.991,7.323,8.036,10.557c5.216,5.542,11.365,9.551,18.862,11.304c2.678,0.626,5.387,0.866,8.132,0.812
			c1.388-0.028,2.246,0.542,2.569,1.89c0.363,1.504,0.653,3.043,0.788,4.584c0.556,6.348,0.497,12.704,0.129,19.062
			c-0.442,7.633-1.531,15.176-3.203,22.632c-5.164,23.043-15.1,43.715-30.832,61.445c-3.09,3.484-6.506,6.678-9.752,10.027
			c-1.306,1.348-2.555,2.751-3.855,4.156c0.417,0.76,0.783,1.405,1.123,2.065c1.139,2.208,1.488,4.65,2.052,7.027
			c3.861,16.304,7.633,32.63,11.638,48.899c1.212,4.921,3.058,9.687,4.624,14.521c5.955,18.366,11.273,36.908,15.512,55.753
			c2.478,11.03,4.573,22.129,6.029,33.342c1.177,9.069,1.904,18.179,1.708,27.337c-0.094,4.335-0.31,8.666-1.375,12.897
			c-0.521,2.068-1.198,4.065-2.846,5.577c-1.984,1.822-4.295,2.844-6.994,2.945c-0.73,0.027-1.465,0.004-2.196,0.004
			c-0.03,0.094-0.059,0.189-0.09,0.283c0.414,0.263,0.837,0.517,1.244,0.788c9.74,6.417,16.741,14.938,20.097,26.236
			c1.754,5.901,2.083,11.942,1.628,18.05c-0.661,8.896-3.707,16.895-9.202,23.898c-6.75,8.608-15.294,14.576-26.072,17.054
			c-1.922,0.441-3.896,0.67-5.842,1.008c-0.364,0.063-0.717,0.182-1.074,0.274C582.418,535.381,579.592,535.381,576.764,535.381z
			 M496.123,279.846c-0.251-0.898-0.444-1.57-0.624-2.248c-1.595-6.005-3.228-12.002-4.762-18.024
			c-0.745-2.925-1.223-5.911-1.026-8.95c0.037-0.582,0.159-1.248,0.483-1.704c0.952-1.343,3.241-1.471,4.476-0.351
			c2.104,1.905,3.424,4.358,4.74,6.806c0.326,0.608,0.542,1.305,0.67,1.987c1.312,6.987,2.474,14.002,3.907,20.962
			c3.401,16.519,7.631,32.829,12.769,48.898c5.513,17.252,12.025,34.092,20.354,50.203c5.972,11.548,13.012,22.387,21.233,32.458
			c3.223,3.944,6.563,7.783,10.603,10.935c2.05,1.598,4.214,2.988,6.709,3.842c1.416,0.483,2.653,0.265,3.915-0.41
			c1.26-0.675,2.088-1.737,2.798-2.919c1.593-2.651,2.691-5.52,3.366-8.508c1.157-5.094,2.162-10.222,3.184-15.346
			c0.44-2.212,0.915-4.436,1.109-6.678c0.354-4.102-0.198-8.186-0.637-12.258c-1.018-9.46-2.558-18.847-4.229-28.209
			c-3.211-17.984-6.853-35.885-10.853-53.708c-3.752-16.72-7.675-33.401-11.507-50.103c-0.398-1.731-0.338-3.417,0.494-5.075
			c1.024-2.043,2.19-3.964,3.957-5.442c0.566-0.474,0.759-0.985,0.745-1.705c-0.013-0.889,0.014-1.805,0.21-2.668
			c0.937-4.129,1.76-8.295,2.947-12.354c2.564-8.759,5.184-17.503,8.677-25.962c4.667-11.295,7.718-23.021,8.737-35.227
			c0.432-5.159,0.02-10.267-1.61-15.215c-1.473-4.467-3.793-8.283-8.173-10.538c-6.256-3.223-12.696-5.957-19.556-7.624
			c-4.269-1.038-8.599-1.693-12.995-1.652c-4.484,0.04-8.895,0.798-13.287,1.678c-2.819,0.563-5.099,1.943-6.863,4.14
			c-1.621,2.018-3.173,4.098-4.642,6.228c-3.773,5.471-7.559,10.927-12.28,15.652c-1.009,1.009-2.009,2.022-3.624,2.736
			c0.46,0.348,0.87,0.593,1.201,0.917c1.446,1.418,2.872,2.858,4.301,4.292c0.911,0.914,1.334,1.972,1.253,3.307
			c-0.106,1.729-0.956,2.637-2.701,2.715c-2.659,0.12-5.247-0.326-7.84-0.841c-7.214-1.431-13.914-4.036-19.802-8.523
			c-4.372-3.334-8.182-7.246-11.529-11.595c-1.98-2.574-3.806-5.269-5.72-7.894c-1.887-2.588-3.728-5.212-5.72-7.716
			c-1.688-2.122-3.903-3.515-6.641-3.968c-1.021-0.169-2.03-0.407-3.046-0.607c-7.11-1.396-14.202-1.453-21.316,0.075
			c-7.237,1.555-14,4.321-20.629,7.543c-4.244,2.063-7.009,5.302-8.646,9.612c-1.938,5.104-2.598,10.415-2.166,15.829
			c0.279,3.516,0.686,7.035,1.297,10.508c1.569,8.931,4.102,17.598,7.595,25.974c0.452,1.084,1.033,2.124,1.405,3.234
			c1.783,5.311,3.569,10.623,5.25,15.967c1.893,6.017,3.778,12.049,4.756,18.298c0.311,1.985,0.247,4.032,0.292,6.052
			c0.028,1.229-0.736,2.198-1.775,2.469c-1.332,0.345-2.82,0.441-3.983-0.718c-0.415-0.414-0.863-0.795-1.436-1.319
			c-0.089,0.949-0.103,1.653-0.229,2.337c-0.467,2.543-0.966,5.082-1.461,7.62c-1.874,9.599-3.741,19.199-5.633,28.795
			c-0.427,2.165-1.112,4.291-1.395,6.473c-1.278,9.835-2.537,19.675-3.642,29.53c-0.912,8.128-1.625,16.274-2.377,24.417
			c-0.402,4.353-0.74,8.712-1.034,13.071c-0.255,3.802-0.442,7.608-0.595,11.413c-0.213,5.312-0.403,10.625-0.529,15.94
			c-0.052,2.254,0.055,4.515,0.146,6.771c0.165,4.136,0.329,8.271,0.573,12.403c0.267,4.509,0.863,8.985,1.776,13.412
			c0.792,3.83,1.75,7.625,3.621,11.096c0.729,1.354,1.571,2.721,2.646,3.797c1.924,1.929,4.278,2.757,6.955,1.544
			c1.496-0.678,3.009-1.362,4.392-2.235c4.021-2.541,7.299-5.92,10.35-9.527c6.744-7.977,12.441-16.668,17.572-25.742
			c0.759-1.343,1.513-2.742,1.942-4.211c1.925-6.603,4.213-13.074,6.748-19.462c4.101-10.332,8.758-20.419,13.779-30.328
			c3.764-7.432,7.689-14.785,11.681-22.097c5.683-10.414,11.684-20.646,17.971-30.71
			C493.835,280.395,494.531,279.593,496.123,279.846z M570.198,237.064c-1.297,0.456-2.207,1.277-2.865,2.333
			c-0.77,1.236-1.425,2.543-2.148,3.808c-0.423,0.743-0.44,1.487-0.229,2.307c0.596,2.325,1.145,4.662,1.695,6.998
			c7.746,32.706,15.109,65.492,20.981,98.594c1.982,11.173,3.821,22.371,4.53,33.713c0.176,2.808,0.204,5.674-0.155,8.454
			c-0.563,4.334-1.479,8.625-2.316,12.922c-0.825,4.251-1.743,8.487-3.338,12.535c-0.815,2.069-1.796,4.05-3.279,5.737
			c-2.209,2.512-4.933,3.316-8.16,2.445c-1.889-0.512-3.575-1.437-5.182-2.523c-3.34-2.26-6.229-5.033-8.916-8.011
			c-8.079-8.949-15.05-18.708-21.099-29.131c-7.584-13.073-13.673-26.839-18.95-40.98c-6.277-16.827-11.314-34.028-15.512-51.483
			c-2.662-11.077-5.018-22.22-6.859-33.465c-0.222-1.344-0.205-2.822-0.789-3.993c-1.11-2.218-2.549-4.275-3.913-6.358
			c-0.273-0.417-0.826-0.651-1.47-1.136c-0.157,0.729-0.336,1.167-0.328,1.602c0.016,0.938,0.072,1.884,0.211,2.811
			c0.744,4.945,2.078,9.755,3.38,14.571c1.547,5.723,3.267,11.405,4.646,17.166c2.848,11.905,4.743,23.998,6.759,36.064
			c1.985,11.88,3.922,23.77,5.934,35.646c2.074,12.25,4.456,24.44,7.395,36.516c2.474,10.161,5.323,20.207,9.311,29.895
			c2.336,5.677,5.04,11.158,8.673,16.137c2.322,3.18,4.959,6.056,8.299,8.195c1.256,0.805,2.619,1.439,3.948,2.162
			c0.253-0.337,0.405-0.514,0.527-0.707c2.771-4.363,6.668-7.384,11.363-9.402c5.323-2.288,10.928-2.762,16.627-2.299
			c8.361,0.68,16.109,3.602,23.79,6.713c1.154,0.467,2.303,0.971,3.541,0.734c4.687-0.889,6.752-2.355,7.84-6.403
			c0.073-0.272,0.163-0.541,0.237-0.813c0.891-3.342,1.218-6.764,1.351-10.199c0.388-9.963-0.527-19.848-1.848-29.708
			c-1.388-10.363-3.325-20.624-5.598-30.824c-4.228-18.987-9.574-37.665-15.556-56.166c-2.011-6.22-4.331-12.341-5.813-18.73
			c-3.721-16.042-7.515-32.068-11.263-48.103c-0.63-2.693-1.618-5.189-3.536-7.129c1.157-1.374,2.271-2.705,3.396-4.027
			c0.306-0.357,0.624-0.707,0.973-1.022c15.222-13.761,26.532-30.242,34.15-49.266c5.462-13.641,8.746-27.805,9.964-42.447
			c0.558-6.724,0.738-13.451-0.016-20.172c-0.179-1.615-0.268-3.268-1.069-4.806c-0.519,0-0.989,0.038-1.451-0.006
			c-2.435-0.23-4.9-0.295-7.289-0.758c-6.606-1.283-12.195-4.588-17.133-9.071c-4.393-3.989-7.994-8.639-11.187-13.609
			c-2.188-3.407-4.235-6.904-6.378-10.34c-0.821-1.317-1.723-2.585-2.605-3.862c-1.111-1.606-2.687-2.512-4.587-2.75
			c-1.771-0.223-3.563-0.394-5.345-0.389c-4.451,0.014-8.818,0.762-13.073,2.038c-18.948,5.68-32.126,17.55-38.84,36.326
			c-0.632,1.772-1.294,3.539-2.028,5.27c-3.253,7.646-7.75,14.524-12.999,20.934c-0.497,0.607-0.997,1.212-1.473,1.791
			c2.041,2.695,8.66,8.802,10.321,9.531c2.658-2.251,5.011-4.822,7.094-7.621c2.67-3.589,5.169-7.305,7.836-10.897
			c1.651-2.227,3.388-4.405,5.249-6.459c1.68-1.855,3.835-3.007,6.366-3.381c1.207-0.179,2.399-0.475,3.604-0.687
			c7.306-1.288,14.601-1.36,21.904,0.073c8.116,1.593,15.697,4.616,22.916,8.568c1.464,0.801,2.817,1.912,3.996,3.103
			c3.19,3.223,4.752,7.296,5.635,11.659c1.271,6.269,1,12.562,0.17,18.845c-1.113,8.431-3.188,16.64-6.049,24.64
			c-1.078,3.01-2.517,5.891-3.566,8.907c-3.24,9.292-6.358,18.626-8.788,28.17C570.887,229.48,569.88,233.128,570.198,237.064z
			 M400.165,230.755c-0.191,0.678-0.328,1.127-0.444,1.582c-3.949,15.454-8,30.883-11.813,46.373
			c-4.443,18.048-8.393,36.21-11.965,54.456c-2.506,12.795-4.775,25.627-6.651,38.528c-1.498,10.298-2.721,20.629-3.362,31.018
			c-0.517,8.372-0.725,16.757,0.233,25.122c0.429,3.747,1.096,7.449,2.464,10.99c0.734,1.902,1.694,3.667,3.018,5.237
			c0.622,0.739,1.278,1.006,2.216,0.708c1.345-0.427,2.716-0.768,4.065-1.183c7.928-2.434,15.9-4.66,24.219-5.323
			c4.718-0.376,9.417-0.306,14.053,0.753c6.526,1.49,11.955,4.721,15.906,10.232c1.193,1.664,1.301,1.725,3.241,1.152
			c0.808-0.239,1.603-0.553,2.366-0.911c2.152-1.008,4.027-2.429,5.775-4.022c3.157-2.879,5.747-6.225,8.044-9.807
			c3.859-6.014,6.801-12.476,9.32-19.142c3.618-9.576,6.271-19.433,8.436-29.424c2.194-10.124,3.869-20.337,5.199-30.611
			c0.36-2.793,0.656-5.592,1.343-8.351c0.75-3.006,1.258-6.08,1.722-9.146c0.585-3.861,1.023-7.742,2.154-11.504
			c1.786-5.937,4.359-11.541,7.295-16.968c3.249-6.004,6.689-11.904,10.076-17.832c0.398-0.699,0.542-1.313,0.358-2.122
			c-0.341-1.511-0.513-3.061-0.785-4.588c-0.227-1.268-0.495-2.529-0.799-4.073c-0.445,0.64-0.729,1.005-0.968,1.396
			c-2.319,3.824-4.659,7.64-6.945,11.484c-7.875,13.241-15.34,26.709-22.199,40.504c-3.583,7.207-6.952,14.526-10.245,21.873
			c-3.642,8.122-6.791,16.445-9.418,24.957c-0.566,1.838-1.011,3.765-1.909,5.438c-5.133,9.569-11.07,18.619-18.025,26.975
			c-2.958,3.553-6.129,6.903-9.824,9.716c-2.071,1.576-4.256,2.959-6.76,3.754c-4.126,1.31-7.548,0.396-10.235-2.971
			c-1.162-1.455-2.146-3.105-2.93-4.798c-1.994-4.306-2.949-8.923-3.68-13.585c-1.286-8.206-1.68-16.479-1.767-24.77
			c-0.1-9.469,0.173-18.931,0.8-28.379c0.51-7.701,1.07-15.401,1.735-23.09c0.581-6.702,1.313-13.393,2.028-20.083
			c0.534-5.006,1.063-10.016,1.748-15.002c0.864-6.286,1.393-12.607,2.771-18.838c2.154-9.741,3.925-19.565,5.849-29.358
			c0.518-2.633,0.982-5.275,1.503-7.908c0.208-1.054,0.023-1.849-0.856-2.61c-1.849-1.604-3.583-3.34-5.369-5.018
			C400.889,231.339,400.597,231.117,400.165,230.755z M365.524,115.342c-0.168,0.584-0.429,1.199-0.51,1.836
			c-0.305,2.426-0.682,4.854-0.793,7.293c-0.33,7.306,0.078,14.585,0.983,21.846c1.271,10.172,3.544,20.105,6.885,29.791
			c6.968,20.203,17.938,37.887,33.323,52.778c2.096,2.029,4.338,3.911,6.049,6.313c0.349,0.49,0.853,0.876,1.314,1.276
			c0.246,0.212,0.537,0.388,0.835,0.522c0.512,0.231,0.959,0.089,1.148-0.447c0.153-0.435,0.279-0.918,0.251-1.37
			c-0.085-1.359-0.103-2.749-0.415-4.063c-1.113-4.665-2.172-9.355-3.554-13.943c-2.537-8.418-5.074-16.838-8.567-24.944
			c-2.386-5.537-4.023-11.353-5.405-17.224c-1.894-8.045-3.182-16.162-2.708-24.475c0.188-3.307,0.701-6.551,1.764-9.693
			c1.801-5.329,5.033-9.441,10.24-11.81c3.425-1.557,6.832-3.169,10.33-4.542c5.952-2.334,12.146-3.723,18.535-4.107
			c6.441-0.387,12.784,0.404,19.057,1.838c1.504,0.344,2.837,1.031,4.001,2.01c0.935,0.786,1.878,1.601,2.636,2.546
			c1.708,2.128,3.33,4.328,4.941,6.531c2.418,3.308,4.708,6.711,7.213,9.95c3.506,4.536,7.613,8.463,12.416,11.648
			c6.504,4.315,13.793,6.367,21.396,7.539c0.782,0.121,1.602,0.104,2.39,0.029c0.765-0.072,0.98-0.502,0.632-1.181
			c-0.255-0.497-0.588-0.976-0.979-1.373c-1.453-1.477-2.91-2.953-4.425-4.365c-4.757-4.437-9.427-8.956-13.702-13.869
			c-7.677-8.826-13.865-18.521-17.582-29.704c-1.372-4.124-3.333-7.994-5.704-11.641c-7.467-11.48-17.912-19.035-30.847-23.243
			c-5.862-1.907-11.865-2.929-18.07-2.577c-3.369,0.191-6.125,1.308-7.872,4.377c-0.768,1.349-1.653,2.631-2.485,3.943
			c-2.595,4.097-5.085,8.264-7.812,12.271c-3.463,5.09-7.556,9.634-12.561,13.29c-5.084,3.714-10.712,6.062-17.013,6.653
			C369.128,115.216,367.386,115.246,365.524,115.342z M581.051,444.234c-24.478-0.064-44.424,19.825-44.48,44.359
			c-0.057,24.501,19.803,44.457,44.315,44.533c24.55,0.075,44.528-19.854,44.553-44.438
			C625.46,464.179,605.609,444.298,581.051,444.234z M446.941,487.884c-0.205-25.289-20.43-44.446-44.387-44.497
			c-23.917-0.05-44.439,18.984-44.52,44.312c-0.08,25.165,20.155,44.475,44.264,44.565
			C426.39,532.355,446.665,513.183,446.941,487.884z M553.568,450.379c0.2,0.049,0.251,0.077,0.272,0.064
			c0.359-0.226,0.717-0.45,1.067-0.687c3.735-2.514,7.748-4.432,12.059-5.755c6.127-1.878,12.39-2.201,18.729-1.754
			c0.658,0.046,1.316,0.101,1.975,0.15c0.004-0.094,0.009-0.188,0.011-0.279c-5.99-1.535-12.008-2.577-18.225-1.306
			c-4.896,0.999-9.313,2.953-13.091,6.263C555.283,448.025,554.375,449.119,553.568,450.379z M428.12,448.602
			c0.078-0.078,0.157-0.156,0.234-0.233c-0.383-0.39-0.746-0.8-1.151-1.163c-2.194-1.964-4.672-3.477-7.406-4.563
			c-5.723-2.271-11.661-2.793-17.736-2.142c-0.935,0.1-1.867,0.224-2.796,0.362c-0.902,0.135-1.798,0.303-2.697,0.457
			c5.527-0.268,11.007-0.244,16.438,0.932C418.44,443.427,423.459,445.574,428.12,448.602z"/>
		<path fill-rule="evenodd" clip-rule="evenodd" fill="#FFFFFF" stroke="#FFFFFF" stroke-width="11" stroke-miterlimit="10" d="
			M365,14.314c1.205,0.172,2.41,0.338,3.614,0.518c9.167,1.372,17.098,5.291,23.888,11.578c6.398,5.924,10.982,12.969,13.351,21.408
			c1.758,6.26,1.963,12.635,1.335,19.048c-1.836,18.77-15.774,32.371-28.583,37.437c-6.38,2.522-12.982,3.335-19.786,3.188
			c-21.764-0.471-37.083-16.235-42.021-30.795c-1.062-3.13-1.825-6.324-2.185-9.614c-0.069-0.637-0.33-1.251-0.501-1.875
			c0-2.827,0-5.655,0-8.482c0.174-0.676,0.378-1.346,0.515-2.029c0.46-2.302,0.755-4.648,1.368-6.908
			c2.466-9.102,7.614-16.503,14.694-22.614c6.537-5.642,14.084-9.12,22.645-10.362c1.156-0.167,2.313-0.331,3.47-0.496
			C359.534,14.314,362.268,14.314,365,14.314z M405.38,61.066c-0.142-25.263-20.306-44.49-44.285-44.597
			c-23.906-0.106-44.478,18.881-44.62,44.211c-0.142,25.094,19.992,44.516,44.163,44.665
			C384.703,105.493,405.042,86.392,405.38,61.066z"/>
		<path fill-rule="evenodd" clip-rule="evenodd" fill="#FFFFFF" stroke="#FFFFFF" stroke-width="11" stroke-miterlimit="10" d="
			M671.193,67.444c-0.168,1.107-0.312,2.219-0.51,3.322c-1.61,8.924-5.65,16.589-11.901,23.139
			c-5.748,6.024-12.514,10.359-20.538,12.686c-5.45,1.58-11.015,1.88-16.647,1.658c-20.726-0.817-36.486-16.381-41.295-31.96
			c-1.688-5.47-2.247-11.058-2.06-16.742c0.314-9.45,3.162-18.055,8.903-25.593c6.975-9.157,15.924-15.377,27.304-17.839
			c4.596-0.995,9.254-1.168,13.92-0.897c9.646,0.559,18.278,3.858,25.748,10.01c8.415,6.928,14.126,15.573,16.361,26.351
			c0.218,1.056,0.294,2.141,0.455,3.209c0.055,0.359,0.173,0.709,0.26,1.064C671.193,59.717,671.193,63.58,671.193,67.444z
			 M624.885,17.292c-24.472-0.079-44.426,19.813-44.491,44.349c-0.063,24.5,19.791,44.46,44.306,44.543
			c24.493,0.083,44.431-19.731,44.562-44.285C669.392,37.358,649.507,17.369,624.885,17.292z"/>
		<g>
			<path fill-rule="evenodd" clip-rule="evenodd" fill="#F96E46" d="M608.281,367.685c-4.228-18.987-9.574-37.665-15.556-56.166
				c-2.011-6.22-4.331-12.341-5.813-18.73c-3.721-16.042-7.515-32.068-11.263-48.103c-0.614-2.624-1.573-5.056-3.396-6.975
				c-0.743-0.276-1.582-0.494-2.428-0.498c-1.098,0.474-1.899,1.232-2.492,2.184c-0.77,1.236-1.425,2.543-2.148,3.808
				c-0.423,0.743-0.44,1.487-0.229,2.307c0.596,2.325,1.145,4.662,1.695,6.998c7.746,32.706,15.109,65.492,20.981,98.594
				c1.982,11.173,3.821,22.371,4.53,33.713c0.176,2.808,0.204,5.674-0.155,8.454c-0.563,4.334-1.479,8.625-2.316,12.922
				c-0.825,4.251-1.743,8.487-3.338,12.535c-0.815,2.069-1.796,4.05-3.279,5.737c-2.209,2.512-4.933,3.316-8.16,2.445
				c-1.889-0.512-3.575-1.437-5.182-2.523c-3.34-2.26-6.229-5.033-8.916-8.011c-8.079-8.949-15.05-18.708-21.099-29.131
				c-7.584-13.073-13.673-26.839-18.95-40.98c-6.277-16.827-11.314-34.028-15.512-51.483c-2.662-11.077-5.018-22.22-6.859-33.465
				c-0.222-1.344-0.205-2.822-0.789-3.993c-1.11-2.218-2.549-4.275-3.913-6.358c-0.273-0.417-0.826-0.651-1.47-1.136
				c-0.157,0.729-0.336,1.167-0.328,1.602c0.016,0.938,0.072,1.884,0.211,2.811c0.744,4.945,2.078,9.755,3.38,14.571
				c1.547,5.723,3.267,11.405,4.646,17.166c2.848,11.905,4.743,23.998,6.759,36.064c1.985,11.88,3.922,23.77,5.934,35.646
				c2.074,12.25,4.456,24.44,7.395,36.516c2.474,10.161,5.323,20.207,9.311,29.895c2.336,5.677,5.04,11.158,8.673,16.137
				c2.322,3.18,4.959,6.056,8.299,8.195c1.256,0.805,2.619,1.439,3.948,2.162c0.253-0.337,0.405-0.514,0.527-0.707
				c2.771-4.363,6.668-7.384,11.363-9.402c5.323-2.288,10.928-2.762,16.627-2.299c8.361,0.68,16.109,3.602,23.79,6.713
				c1.154,0.467,2.303,0.971,3.541,0.734c4.687-0.889,6.752-2.355,7.84-6.403c0.073-0.272,0.163-0.541,0.237-0.813
				c0.891-3.342,1.218-6.764,1.351-10.199c0.388-9.963-0.527-19.848-1.848-29.708C612.491,388.146,610.554,377.885,608.281,367.685z
				"/>
			<path fill-rule="evenodd" clip-rule="evenodd" fill="#F9C846" d="M620.581,120.622c-0.179-1.615-0.268-3.268-1.069-4.806
				c-0.519,0-0.989,0.038-1.451-0.006c-2.435-0.23-4.9-0.295-7.289-0.758c-6.606-1.283-12.195-4.588-17.133-9.071
				c-4.393-3.989-7.994-8.639-11.187-13.609c-2.188-3.407-4.235-6.904-6.378-10.34c-0.821-1.317-1.723-2.585-2.605-3.862
				c-1.111-1.606-2.687-2.512-4.587-2.75c-1.771-0.223-3.563-0.394-5.345-0.389c-4.451,0.014-8.818,0.762-13.073,2.038
				c-18.948,5.68-32.126,17.55-38.84,36.326c-0.632,1.772-1.294,3.539-2.028,5.27c-3.253,7.646-7.75,14.524-12.999,20.934
				c-0.497,0.607-0.997,1.212-1.473,1.791c2.041,2.695,8.66,8.802,10.321,9.531c2.658-2.251,5.011-4.822,7.094-7.621
				c2.67-3.589,5.169-7.305,7.836-10.897c1.651-2.227,3.388-4.405,5.249-6.459c1.68-1.855,3.835-3.007,6.366-3.381
				c1.207-0.179,2.399-0.475,3.604-0.687c7.306-1.288,14.601-1.36,21.904,0.073c8.116,1.593,15.697,4.616,22.916,8.568
				c1.464,0.801,2.817,1.912,3.996,3.103c3.19,3.223,4.752,7.296,5.635,11.659c1.271,6.269,1,12.562,0.17,18.845
				c-1.113,8.431-3.188,16.64-6.049,24.64c-1.078,3.01-2.517,5.891-3.566,8.907c-3.24,9.292-6.358,18.626-8.788,28.17
				c-0.821,3.23-1.701,6.466-1.669,9.902c0.525,0.308,1.519,0.829,2.587,1.082c0.937-1.114,1.858-2.21,2.779-3.293
				c0.306-0.357,0.624-0.707,0.973-1.022c15.222-13.761,26.532-30.242,34.15-49.266c5.462-13.641,8.746-27.805,9.964-42.447
				C621.154,134.071,621.335,127.344,620.581,120.622z"/>
		</g>
		<path fill-rule="evenodd" clip-rule="evenodd" fill="#B79CED" d="M400.165,230.755c0.432,0.363,0.725,0.584,0.991,0.833
			c1.786,1.678,3.521,3.415,5.369,5.018c0.88,0.762,1.065,1.557,0.856,2.61c-0.521,2.633-0.985,5.275-1.503,7.908
			c-1.923,9.792-3.695,19.617-5.849,29.358c-1.378,6.23-1.906,12.552-2.771,18.838c-0.686,4.986-1.214,9.996-1.748,15.002
			c-0.715,6.69-1.447,13.381-2.028,20.083c-0.665,7.688-1.225,15.389-1.735,23.09c-0.626,9.448-0.899,18.91-0.8,28.379
			c0.087,8.291,0.481,16.563,1.767,24.77c0.73,4.662,1.686,9.279,3.68,13.585c0.783,1.692,1.768,3.343,2.93,4.798
			c2.687,3.366,6.108,4.28,10.235,2.971c2.504-0.795,4.689-2.178,6.76-3.754c3.695-2.813,6.866-6.163,9.824-9.716
			c6.956-8.355,12.892-17.405,18.025-26.975c0.898-1.673,1.342-3.6,1.909-5.438c2.628-8.512,5.776-16.835,9.418-24.957
			c3.293-7.347,6.662-14.666,10.245-21.873c6.858-13.795,14.324-27.263,22.199-40.504c2.286-3.845,4.626-7.66,6.945-11.484
			c0.238-0.392,0.522-0.757,0.968-1.396c0.304,1.544,0.572,2.806,0.799,4.073c0.272,1.527,0.444,3.077,0.785,4.588
			c0.184,0.809,0.04,1.423-0.358,2.122c-3.387,5.928-6.827,11.828-10.076,17.832c-2.937,5.427-5.51,11.031-7.295,16.968
			c-1.131,3.762-1.569,7.643-2.154,11.504c-0.464,3.065-0.972,6.14-1.722,9.146c-0.688,2.759-0.983,5.558-1.343,8.351
			c-1.331,10.274-3.005,20.487-5.199,30.611c-2.165,9.991-4.817,19.848-8.436,29.424c-2.519,6.666-5.461,13.128-9.32,19.142
			c-2.298,3.582-4.887,6.928-8.044,9.807c-1.749,1.594-4.079,3.117-4.888,3.355c-1.816,1.03-2.945,1.374-3.387,0.981
			c-5.068-4.504-11.193-8.645-17.72-10.136c-4.635-1.06-10.629-1.781-15.348-1.405c-8.318,0.663-16.291,2.89-24.219,5.323
			c-1.349,0.415-2.72,0.756-4.065,1.183c-0.938,0.298-1.594,0.031-2.216-0.708c-1.324-1.57-2.284-3.335-3.018-5.237
			c-1.369-3.541-2.035-7.243-2.464-10.99c-0.958-8.365-0.75-16.75-0.233-25.122c0.641-10.389,1.864-20.72,3.362-31.018
			c1.876-12.901,4.145-25.733,6.651-38.528c3.572-18.245,7.521-36.407,11.965-54.456c3.813-15.49,7.864-30.919,11.813-46.373
			C399.836,231.882,399.974,231.432,400.165,230.755z"/>
		<path fill-rule="evenodd" clip-rule="evenodd" fill="#0B96BD" d="M365.524,115.342c1.862-0.096,3.604-0.126,5.333-0.288
			c6.301-0.592,11.929-2.939,17.013-6.653c5.005-3.656,9.098-8.2,12.561-13.29c2.726-4.007,5.216-8.175,7.812-12.271
			c0.832-1.313,1.717-2.595,2.485-3.943c1.747-3.07,4.503-4.187,7.872-4.377c6.205-0.352,12.208,0.669,18.07,2.577
			c12.935,4.208,23.38,11.763,30.847,23.243c2.372,3.647,4.333,7.518,5.704,11.641c3.716,11.183,9.905,20.878,17.582,29.704
			c4.275,4.913,8.945,9.432,13.702,13.869c1.515,1.413,2.972,2.888,4.425,4.365c0.391,0.397,0.724,0.876,0.979,1.373
			c0.349,0.679,0.133,1.109-0.632,1.181c-0.788,0.075-1.607,0.091-2.39-0.029c-7.603-1.172-14.892-3.224-21.396-7.539
			c-4.803-3.185-8.91-7.112-12.416-11.648c-2.504-3.239-4.794-6.643-7.213-9.95c-1.611-2.203-3.232-4.402-4.941-6.531
			c-0.758-0.945-1.702-1.76-2.636-2.546c-1.164-0.979-2.497-1.666-4.001-2.01c-6.273-1.435-12.616-2.225-19.057-1.838
			c-6.388,0.384-12.583,1.773-18.535,4.107c-3.498,1.373-6.905,2.984-10.33,4.542c-5.207,2.368-8.438,6.48-10.24,11.81
			c-1.063,3.143-1.575,6.387-1.764,9.693c-0.474,8.313,0.814,16.43,2.708,24.475c1.382,5.871,3.019,11.687,5.405,17.224
			c3.493,8.105,6.03,16.525,8.567,24.944c1.382,4.587,2.441,9.278,3.554,13.943c0.313,1.314,0.33,2.703,0.415,4.063
			c0.028,0.451-0.098,0.935-0.251,1.37c-0.189,0.536-0.636,0.678-1.148,0.447c-0.298-0.134-0.589-0.31-0.835-0.522
			c-0.461-0.4-0.965-0.786-1.314-1.276c-1.711-2.401-3.954-4.284-6.049-6.313c-15.385-14.891-26.355-32.575-33.323-52.778
			c-3.341-9.685-5.614-19.619-6.885-29.791c-0.906-7.261-1.313-14.54-0.983-21.846c0.111-2.439,0.488-4.867,0.793-7.293
			C365.095,116.541,365.356,115.927,365.524,115.342z"/>
		<path fill-rule="evenodd" clip-rule="evenodd" fill="#F96E46" d="M581.051,444.234c24.559,0.064,44.409,19.945,44.388,44.454
			c-0.024,24.585-20.003,44.514-44.553,44.438c-24.513-0.076-44.372-20.032-44.315-44.533
			C536.627,464.059,556.573,444.169,581.051,444.234z"/>
		<path fill-rule="evenodd" clip-rule="evenodd" fill="#B79CED" d="M446.941,487.884c-0.277,25.299-20.552,44.471-44.643,44.38
			c-24.109-0.091-44.344-19.4-44.264-44.565c0.081-25.327,20.603-44.361,44.52-44.312
			C426.512,443.438,446.736,462.595,446.941,487.884z"/>
		<path fill-rule="evenodd" clip-rule="evenodd" fill="#FFFFFF" d="M553.568,450.379c0.807-1.26,1.715-2.354,2.798-3.303
			c3.778-3.31,8.195-5.264,13.091-6.263c6.217-1.271,12.234-0.229,18.225,1.306c-0.002,0.092-0.007,0.186-0.011,0.279
			c-0.658-0.05-1.316-0.104-1.975-0.15c-6.34-0.447-12.603-0.124-18.729,1.754c-4.311,1.323-8.323,3.241-12.059,5.755
			c-0.351,0.236-0.708,0.461-1.067,0.687C553.819,450.456,553.769,450.428,553.568,450.379z"/>
		<path fill-rule="evenodd" clip-rule="evenodd" fill="#FFFFFF" d="M428.12,448.602c-4.66-3.027-9.679-5.175-15.113-6.35
			c-5.431-1.176-10.911-1.199-16.438-0.932c0.898-0.154,1.795-0.322,2.697-0.457c0.93-0.139,1.861-0.263,2.796-0.362
			c6.076-0.651,12.013-0.13,17.736,2.142c2.734,1.086,5.211,2.599,7.406,4.563c0.405,0.363,0.768,0.773,1.151,1.163
			C428.276,448.446,428.198,448.524,428.12,448.602z"/>
		<path fill-rule="evenodd" clip-rule="evenodd" fill="#F9C846" d="M624.885,17.292c24.622,0.077,44.507,20.065,44.376,44.606
			c-0.131,24.554-20.068,44.368-44.562,44.285c-24.515-0.083-44.369-20.043-44.306-44.543
			C580.459,37.105,600.413,17.213,624.885,17.292z"/>
		<path fill-rule="evenodd" clip-rule="evenodd" fill="#0B96BD" d="M405.38,61.066c-0.338,25.326-20.677,44.427-44.742,44.279
			c-24.171-0.149-44.305-19.571-44.163-44.665c0.142-25.33,20.714-44.317,44.62-44.211C385.074,16.576,405.238,35.803,405.38,61.066
			z"/>
	</g>
</g>
<g id="Interieur_Logo">
	
		<image overflow="visible" enable-background="new    " width="1024" height="127" id="Objet_dynamique_vectoriel" xlink:href="52CA2E0F45635446.png"  transform="matrix(0.1417 0 0 0.1417 421.1167 201.8494)">
	</image>
	<g id="DentaCoop" enable-background="new    ">
		<path fill="#3D895F" d="M420.493,186.059v-0.722c0.637-0.369,1.091-0.652,1.36-0.836c0.128-1.617,0.198-4.664,0.198-9.115
			c0-1.928-0.013-3.544-0.057-4.832c-0.041-1.29-0.099-2.042-0.184-2.226c-0.042-0.099-0.099-0.156-0.184-0.213
			c-0.142-0.07-0.822-0.184-2.042-0.325v-1.163c1.39,0.042,2.991,0.071,4.806,0.071l6.818-0.071c2.479,0,4.364,0.312,5.654,0.936
			c1.289,0.623,2.311,1.587,3.062,2.876c0.751,1.29,1.134,2.864,1.134,4.707c0,2.366-0.595,4.422-1.771,6.138
			c-1.177,1.713-2.623,2.933-4.323,3.671c-1.701,0.722-3.516,1.091-5.444,1.091l-5.244-0.099
			C423.441,185.959,422.179,186.002,420.493,186.059z M426.092,184.343c0.778,0.142,1.573,0.214,2.38,0.214
			c2.056,0,3.629-0.298,4.706-0.879c1.078-0.595,1.956-1.559,2.624-2.892c0.665-1.346,1.005-2.991,1.005-4.947
			c0-2.565-0.667-4.535-1.998-5.882c-1.178-1.204-3.09-1.8-5.741-1.8c-0.567,0-1.559,0.043-2.976,0.142l-0.114,8.618
			C425.978,180.545,426.021,183.026,426.092,184.343z"/>
		<path fill="#3D895F" d="M454.497,183.394l0.396,0.397l-0.623,1.318c-0.666,0.411-1.374,0.722-2.141,0.921
			c-0.765,0.213-1.572,0.312-2.423,0.312c-2.012,0-3.601-0.582-4.763-1.757c-1.163-1.163-1.743-2.807-1.743-4.933
			c0-1.332,0.17-2.452,0.51-3.331c0.284-0.709,0.739-1.304,1.362-1.772c0.637-0.467,1.361-0.921,2.182-1.347
			c0.822-0.425,1.729-0.637,2.723-0.637c1.515,0,2.764,0.425,3.755,1.275c0.992,0.851,1.474,2.211,1.474,4.083
			c0,0.227-0.016,0.581-0.057,1.05l-2.269,0.41c-0.694,0.043-1.716,0.071-3.033,0.071h-3.004c0.143,1.586,0.609,2.792,1.43,3.6
			c0.809,0.807,1.844,1.204,3.105,1.204c0.525,0,1.048-0.071,1.559-0.227C453.448,183.876,453.986,183.692,454.497,183.394z
			 M446.786,178.022c0.836,0.071,1.658,0.114,2.494,0.114c0.725,0,1.489-0.043,2.298-0.114l0.013-0.652
			c0-1.133-0.212-1.97-0.623-2.494c-0.411-0.525-0.978-0.78-1.688-0.78c-0.495,0-0.92,0.127-1.289,0.37
			c-0.355,0.24-0.623,0.594-0.808,1.035C447.012,175.939,446.885,176.775,446.786,178.022z"/>
		<path fill="#3D895F" d="M457.105,186.059v-1.134c1.005-0.056,1.573-0.141,1.701-0.24c0.126-0.099,0.211-0.341,0.24-0.709
			c0.058-0.936,0.086-2.58,0.086-4.933c0-1.161-0.014-2.168-0.058-3.004c-0.013-0.525-0.057-0.823-0.112-0.921
			c-0.043-0.071-0.114-0.128-0.228-0.171c-0.099-0.042-0.651-0.071-1.628-0.099v-1.063c0.495,0,1.274-0.113,2.338-0.326
			c1.063-0.211,1.956-0.467,2.665-0.736l0.368-0.127c0.127,0,0.198,0.099,0.198,0.311l-0.014,0.128
			c-0.028,0.255-0.042,0.922-0.042,1.999l2.141-1.8c0.269-0.227,0.538-0.382,0.837-0.467c0.411-0.114,0.892-0.17,1.474-0.17
			c0.977,0,1.77,0.17,2.395,0.51c0.624,0.341,1.077,0.808,1.374,1.404c0.286,0.594,0.441,1.53,0.441,2.777
			c0,0.553-0.015,1.206-0.043,1.928c-0.042,1.501-0.071,2.792-0.071,3.883c0,0.624,0.055,1.049,0.156,1.29
			c0.071,0.171,0.185,0.283,0.313,0.327c0.127,0.057,0.637,0.127,1.516,0.212v1.134l-1.701-0.057l-1.092-0.027l-2.848,0.084
			l-0.156-0.184c0.239-1.757,0.354-3.557,0.354-5.4c0-2.353-0.143-3.799-0.426-4.336c-0.368-0.709-1.048-1.05-2.026-1.05
			c-0.623,0-1.176,0.157-1.63,0.481c-0.468,0.327-0.765,0.667-0.893,1.021c-0.071,0.141-0.099,0.609-0.099,1.403
			c0,3.346,0.014,5.273,0.042,5.755c0.029,0.481,0.099,0.78,0.241,0.892c0.171,0.143,0.78,0.242,1.857,0.298v1.135
			c-1.602-0.058-2.963-0.086-4.068-0.086C460.023,185.975,458.834,186.002,457.105,186.059z"/>
		<path fill="#3D895F" d="M473.943,174.932l1.841-1.204c-0.013-1.63-0.07-3.062-0.141-4.295c1.262-0.383,2.452-0.865,3.571-1.417
			l0.411,0.312c-0.199,1.332-0.34,3.132-0.411,5.385c0.425,0.071,0.85,0.114,1.262,0.114c0.935,0,1.786-0.071,2.539-0.198
			l0.126,0.084l-0.126,0.498c-0.143,0.51-0.242,0.991-0.299,1.43c-1.078-0.071-1.871-0.113-2.381-0.113
			c-0.382,0-0.753,0.014-1.107,0.057c-0.013,0.936-0.027,1.757-0.027,2.466c0,3.105,0.099,4.876,0.283,5.301
			c0.186,0.425,0.625,0.638,1.318,0.638c0.198,0,0.425-0.028,0.652-0.07c0.24-0.043,0.481-0.114,0.751-0.199l0.242,0.525
			c-0.554,0.623-1.093,1.26-1.618,1.927c-0.339,0.057-0.65,0.098-0.935,0.127c-0.283,0.028-0.553,0.042-0.793,0.042
			c-0.779,0-1.417-0.128-1.941-0.396c-0.525-0.271-0.895-0.61-1.135-1.035c-0.241-0.426-0.353-1.063-0.353-1.899
			c0-0.439,0.027-1.602,0.071-3.488c0.042-1.657,0.071-2.961,0.071-3.924l-0.709-0.03c-0.297,0-0.68,0.03-1.133,0.085v-0.723
			H473.943L473.943,174.932z"/>
		<path fill="#3D895F" d="M496.621,184.925v1.134l-1.063-0.043c-0.565-0.028-1.135-0.041-1.686-0.041
			c-0.865,0-1.688,0.027-2.468,0.084l-0.142-0.156l0.142-1.899l-2.892,2.155c-0.511,0.112-0.977,0.184-1.36,0.184
			c-0.979,0-1.729-0.297-2.268-0.878c-0.539-0.581-0.808-1.432-0.808-2.552c0-1.375,0.369-2.338,1.09-2.906
			c0.937-0.738,3.021-1.403,6.237-1.984c-0.013-1.092-0.212-1.884-0.566-2.382c-0.51-0.68-1.29-1.02-2.354-1.02
			c-0.255,0-0.51,0.028-0.765,0.084c-0.271,0.058-0.525,0.157-0.794,0.284l-0.623,1.474l-0.949-0.242l0.027-0.623l-0.015-0.61
			l-0.013-0.553c1.417-0.879,2.422-1.433,3.047-1.645c0.453-0.17,1.077-0.255,1.884-0.255c1.092,0,1.971,0.17,2.665,0.496
			c0.681,0.326,1.178,0.78,1.489,1.333c0.312,0.566,0.469,1.39,0.469,2.466c0,0.454-0.016,1.262-0.058,2.425
			c-0.042,1.204-0.058,2.168-0.058,2.905c0,1.163,0.029,1.857,0.1,2.113c0.043,0.141,0.128,0.269,0.271,0.34
			C495.289,184.756,495.784,184.84,496.621,184.925z M491.392,179.24c-1.617,0.355-2.665,0.738-3.162,1.149
			c-0.481,0.411-0.736,0.964-0.736,1.658c0,0.566,0.156,1.006,0.469,1.332c0.311,0.326,0.708,0.482,1.189,0.482
			c0.723,0,1.474-0.411,2.24-1.233V179.24L491.392,179.24z"/>
		<path fill="#3D895F" d="M516.494,183.054l0.34,0.312c-0.242,0.467-0.455,0.936-0.639,1.418c-1.076,0.566-2.098,0.963-3.09,1.191
			c-0.993,0.239-2.14,0.354-3.429,0.354c-2.426,0-4.467-0.426-6.139-1.277c-1.673-0.85-2.948-2.04-3.855-3.585
			c-0.893-1.545-1.346-3.302-1.346-5.301c0-2.863,1.021-5.216,3.047-7.058c2.039-1.83,4.848-2.75,8.419-2.75
			c1.191,0,2.368,0.099,3.543,0.312c1.163,0.213,2.325,0.54,3.488,0.964l0.098,0.213c-0.17,0.495-0.283,0.978-0.353,1.445
			c-0.129,0.808-0.214,1.8-0.285,2.991h-1.161c-0.057-1.461-0.113-2.254-0.173-2.396c-0.054-0.142-0.31-0.383-0.765-0.737
			c-0.453-0.339-1.063-0.623-1.828-0.85c-0.765-0.213-1.614-0.326-2.549-0.326c-2.214,0-3.971,0.68-5.273,2.055
			c-1.305,1.361-1.959,3.259-1.959,5.698c0,2.636,0.782,4.776,2.355,6.406c1.444,1.517,3.445,2.268,5.968,2.268
			c0.977,0,1.898-0.099,2.75-0.298C514.522,183.919,515.457,183.565,516.494,183.054z"/>
		<path fill="#3D895F" d="M518.846,179.483c0-2.183,0.51-3.828,1.531-4.933c1.233-1.303,3.005-1.956,5.314-1.956
			c2.312,0,3.996,0.524,5.047,1.56c1.061,1.047,1.588,2.692,1.588,4.946c0,2.324-0.61,4.11-1.83,5.357
			c-1.219,1.261-2.92,1.885-5.102,1.885c-2.142,0-3.771-0.582-4.891-1.757C519.414,183.423,518.846,181.721,518.846,179.483z
			 M522.687,178.532c0,2.467,0.312,4.209,0.937,5.259c0.495,0.809,1.219,1.205,2.197,1.205c0.864,0,1.516-0.34,1.984-1.021
			c0.467-0.68,0.693-1.927,0.693-3.728c0-2.48-0.283-4.196-0.865-5.146c-0.467-0.765-1.203-1.134-2.196-1.134
			c-0.865,0-1.532,0.341-2.028,1.035C522.929,175.684,522.687,176.86,522.687,178.532z"/>
		<path fill="#3D895F" d="M534.623,179.483c0-2.183,0.51-3.828,1.529-4.933c1.233-1.303,3.005-1.956,5.314-1.956
			c2.312,0,3.998,0.524,5.047,1.56c1.063,1.047,1.586,2.692,1.586,4.946c0,2.324-0.608,4.11-1.828,5.357
			c-1.219,1.261-2.92,1.885-5.102,1.885c-2.142,0-3.771-0.582-4.891-1.757C535.174,183.423,534.623,181.721,534.623,179.483z
			 M538.449,178.532c0,2.467,0.312,4.209,0.935,5.259c0.494,0.809,1.22,1.205,2.196,1.205c0.865,0,1.519-0.34,1.985-1.021
			c0.468-0.68,0.694-1.927,0.694-3.728c0-2.48-0.283-4.196-0.864-5.146c-0.469-0.765-1.205-1.134-2.196-1.134
			c-0.865,0-1.532,0.341-2.029,1.035C538.688,175.684,538.449,176.86,538.449,178.532z"/>
		<path fill="#3D895F" d="M549.971,174.833v-1.063c1.617-0.141,2.964-0.353,4.012-0.651l1.473-0.454
			c0.129,0,0.201,0.113,0.201,0.326c0,0.184-0.014,0.425-0.044,0.75l-0.041,1.262l2.237-1.772c0.469-0.382,1.264-0.566,2.355-0.566
			c1.558,0,2.805,0.481,3.754,1.446c0.938,0.963,1.419,2.267,1.419,3.898c0,0.821-0.113,1.629-0.355,2.423
			c-0.241,0.794-0.51,1.432-0.837,1.899c-0.324,0.469-0.891,1.021-1.699,1.645c-1.39,1.12-2.227,1.757-2.495,1.913
			c-0.524,0.298-1.163,0.454-1.899,0.454c-0.412,0-0.835-0.057-1.246-0.156c-0.412-0.1-0.822-0.255-1.233-0.454l0.057,4.21
			c0.041,1.006,0.142,1.602,0.312,1.772s0.865,0.255,2.055,0.255v1.134c-1.432-0.057-2.678-0.084-3.741-0.084
			c-2.026,0-3.46,0.027-4.297,0.084v-1.134c0.98-0.028,1.547-0.084,1.688-0.169c0.101-0.058,0.154-0.142,0.211-0.27
			c0.088-0.228,0.143-1.162,0.186-2.835c0.057-2.339,0.085-4.082,0.085-5.23l-0.028-5.5c-0.013-1.616-0.057-2.537-0.154-2.764
			c-0.044-0.113-0.116-0.212-0.214-0.27C551.588,174.876,550.991,174.833,549.971,174.833z M555.584,183.04
			c0.412,0.525,0.865,0.921,1.361,1.19c0.495,0.271,1.021,0.398,1.587,0.398c0.95,0,1.729-0.413,2.34-1.219
			c0.608-0.809,0.906-2.126,0.906-3.94c0-1.459-0.312-2.566-0.921-3.331c-0.623-0.752-1.403-1.135-2.367-1.135
			c-0.481,0-0.963,0.114-1.446,0.34c-0.481,0.226-0.963,0.58-1.444,1.034v6.662H555.584L555.584,183.04z"/>
	</g>
</g>
</svg>
